<svg height="512pt" viewBox="0 0 512.16599 512" width="512pt" xmlns="http://www.w3.org/2000/svg"><path d="m194.371094 353.1875c.027344-19.65625 3.714844-39.136719 10.878906-57.441406-39.027344-34.351563-95.378906-40.605469-140.988281-15.648438-45.609375 24.960938-70.71875 75.792969-62.824219 127.183594 7.894531 51.386719 47.109375 92.339844 98.105469 102.453125 50.996093 10.117187 102.875-12.761719 129.789062-57.246094-22.65625-28.136719-34.992187-63.179687-34.960937-99.300781zm0 0" fill="#ebeced"/><path d="m194.371094 353.1875c.050781-11.894531 1.464844-23.742188 4.210937-35.3125h-176.171875c-29.660156 42.410156-29.660156 98.832031 0 141.242188h202.601563c1.503906-2.164063 2.949219-4.371094 4.320312-6.628907-22.65625-28.136719-34.992187-63.179687-34.960937-99.300781zm0 0" fill="#f4cd1e"/><path d="m159.0625 388.496094c0 19.503906-15.808594 35.3125-35.308594 35.3125-19.503906 0-35.3125-15.808594-35.3125-35.3125 0-19.5 15.808594-35.308594 35.3125-35.308594 19.5 0 35.308594 15.808594 35.308594 35.308594zm0 0" fill="#ebeced"/><path d="m512.164062 353.1875c0 87.753906-71.136718 158.894531-158.894531 158.894531-87.757812 0-158.898437-71.140625-158.898437-158.894531 0-87.757812 71.140625-158.898438 158.898437-158.898438 87.757813 0 158.894531 71.140626 158.894531 158.898438zm0 0" fill="#445c71"/><path d="m459.199219 388.496094c0 39.003906-31.617188 70.621094-70.621094 70.621094-39 0-70.617187-31.617188-70.617187-70.621094s31.617187-70.621094 70.617187-70.621094c39.003906 0 70.621094 31.617188 70.621094 70.621094zm0 0" fill="#ebeced"/><path d="m401.0625 402.496094c-10.714844.003906-20.371094-6.449219-24.472656-16.347656-4.097656-9.898438-1.828125-21.292969 5.75-28.867188 10.484375-9.992188 26.96875-9.992188 37.453125 0 10.339843 10.34375 10.339843 27.105469 0 37.449219-4.953125 4.988281-11.699219 7.785156-18.730469 7.765625zm0-35.308594c-3.570312 0-6.789062 2.152344-8.15625 5.449219-1.363281 3.296875-.609375 7.09375 1.914062 9.617187 3.488282 3.339844 8.984376 3.339844 12.472657 0 2.523437-2.523437 3.28125-6.320312 1.914062-9.617187-1.367187-3.296875-4.585937-5.449219-8.152343-5.449219zm0 0" fill="#445c71"/><path d="m376.097656 427.460938c-10.710937 0-20.363281-6.453126-24.460937-16.347657-4.097657-9.894531-1.835938-21.285156 5.738281-28.859375 10.476562-10 26.96875-10 37.445312 0 10.339844 10.34375 10.339844 27.105469 0 37.449219-4.953124 4.984375-11.695312 7.777344-18.722656 7.757813zm0-35.308594c-3.566406.003906-6.777344 2.152344-8.144531 5.445312-1.363281 3.296875-.613281 7.089844 1.902344 9.613282 3.488281 3.351562 8.996093 3.351562 12.484375 0 2.515625-2.523438 3.265625-6.316407 1.902344-9.613282-1.367188-3.292968-4.578126-5.441406-8.144532-5.445312zm0 0" fill="#445c71"/><path d="m179.308594 163.078125 18.726562 18.726563c6.894532 6.894531 6.894532 18.070312 0 24.96875-6.898437 6.894531-18.074218 6.894531-24.96875 0l-18.726562-18.726563zm0 0" fill="#ff6c77"/><path d="m19.773438.0820312h-10.78125c-4.875 0-8.828126 3.9531248-8.828126 8.8281248v28.046875c0 2.410157.988282 4.714844 2.730469 6.382813l151.4375 144.707031 24.972657-24.972656-153.148438-160.261719c-1.667969-1.746094-3.972656-2.7304688-6.382812-2.7304688zm0 0" fill="#d69564"/><g fill="#ed634c"><path d="m247.339844 194.289062c-3.058594 0-5.898438-1.585937-7.507813-4.1875-1.605469-2.601562-1.753906-5.847656-.386719-8.585937l8.828126-17.65625c1.410156-2.820313 4.21875-4.675781 7.367187-4.867187 3.152344-.191407 6.164063 1.3125 7.902344 3.945312s1.941406 5.992188.53125 8.816406l-8.828125 17.65625c-1.496094 2.992188-4.558594 4.882813-7.90625 4.878906zm0 0"/><path d="m132.578125 229.601562c-1.363281 0-2.710937-.320312-3.933594-.929687l-17.65625-8.824219c-2.824219-1.410156-4.679687-4.21875-4.871093-7.371094-.1875-3.148437 1.316406-6.160156 3.945312-7.898437 2.632812-1.742187 5.996094-1.945313 8.816406-.535156l17.65625 8.828125c3.667969 1.828125 5.59375 5.941406 4.652344 9.933594-.941406 3.988281-4.507812 6.804687-8.609375 6.796874zm0 0"/></g></svg>