<svg xmlns="http://www.w3.org/2000/svg" xmlns:xlink="http://www.w3.org/1999/xlink" version="1.1" x="0px" y="0px" viewBox="0 0 166.365 296.07875" style="enable-background:new 0 0 166.365 236.863;" xml:space="preserve">
<g>
<path d="M122.621,56.428c-0.432-0.353-0.833-0.689-1.187-0.994c-0.659-0.565-1.173-1.031-1.509-1.342   c-0.168-0.158-0.291-0.274-0.366-0.346c-0.073-0.072-0.073-0.072-0.073-0.072c-0.797-0.786-1.715-1.369-2.694-1.752   c-1.041-0.522-2.212-0.823-3.456-0.823h-6.633c-0.812,5.231-3.18,19.266-6.715,29.994L122.621,56.428z"/>
<path d="M55.652,98.168c0.037-12.313,3.984-19.926,8.199-24.77c1.033-1.176,2.096-2.173,3.121-3.004v27.885v18.79l24.836-27.064   c-5.607-9.691-9.402-31.994-10.477-38.908h-6.633c-0.525,0-1.038,0.054-1.533,0.153c-0.219-0.018-0.437-0.033-0.658-0.033   c-1.932,0.013-3.546,0.374-5.22,0.898c-5.692,1.874-12.268,6.181-17.894,13.752c-5.576,7.547-9.766,18.387-9.744,32.301   c0.002,7.242,1.113,15.307,3.624,24.245c2.864-2.371,8.155-6.296,14.296-8.647C56.217,107.883,55.652,102.698,55.652,98.168z"/>
<path d="M163.014,50.128c0.814,0,1.629-0.037,2.435-0.114c0.461-3.415,0.765-7.146,0.911-11.246c0.153-4.416-3.304-8.119-7.72-8.27   c-4.416-0.154-8.118,3.301-8.27,7.717c-0.112,3.544-0.379,6.659-0.746,9.402c0.783,0.278,1.865,0.636,3.172,0.996   C155.554,49.375,159.269,50.13,163.014,50.128z"/>
<path d="M139.947,81.018c0.018,0,0.036,0,0.055,0c3.382,0,7.039-0.752,10.403-2.599c5.13-2.787,9.069-7.799,11.591-14.272   c1.271-3.249,2.264-6.914,2.988-11.092c-0.66,0.044-1.318,0.073-1.971,0.073c-5.706-0.01-11.054-1.539-13.857-2.498   c-0.964,5.343-2.342,8.896-3.662,10.913c-1.078,1.68-1.982,2.397-2.761,2.834c-0.786,0.422-1.593,0.631-2.786,0.639   c-3.148,0.141-8.8-2.363-13.119-5.426c-0.304-0.208-0.587-0.416-0.879-0.624l-58.976,64.268v6.267v95   c0,6.828,5.535,12.363,12.363,12.363c6.828,0,12.363-5.535,12.363-12.363v-87.273h4.637V224.5c0,6.828,5.535,12.363,12.363,12.363   c6.828,0,12.363-5.535,12.363-12.363v-95V98.279v-23.4C126.204,77.992,132.502,80.902,139.947,81.018z"/>
<circle cx="94.018" cy="22.5" r="22.5"/><polygon points="93.018,55 86.018,51 86.018,60 93.018,56  "/>
<polygon points="95.018,55 95.018,56 102.018,60 102.018,51  "/>
<circle cx="94.018" cy="63.5" r="2"/><circle cx="94.018" cy="70.5" r="2"/>
<circle cx="94.018" cy="78.5" r="2"/><path d="M65.115,119.093l-4.568,4.964c-0.881-2.559-1.629-5.012-2.25-7.358c-6.037,2.384-11.415,6.556-13.838,8.637   c-0.098,0.083-0.17,0.147-0.257,0.223c0.784,2.524,1.674,5.113,2.685,7.774c0.481,1.267,1.258,2.33,2.211,3.165L0,189.841   l3.07,2.818l49.971-54.285c0.437,0.074,0.879,0.12,1.326,0.12c0.944,0,1.904-0.168,2.839-0.523c3.843-1.46,5.903-5.562,4.907-9.452   l3.002-3.262l1-1.09v-6.164L65.115,119.093z"/>
<polygon points="127.082,57.731 155.094,27.206 152.023,24.388 123.967,54.962 122.771,56.264 126.098,58.804  "/><rect x="155.95" y="22.493" transform="matrix(0.9437 -0.3307 0.3307 0.9437 0.4908 53.8694)" width="5.168" height="6"/>
</g>
</svg>